<!DOCTYPE svg PUBLIC "-//W3C//DTD SVG 1.1//EN" "http://www.w3.org/Graphics/SVG/1.1/DTD/svg11.dtd">
<!-- Uploaded to: SVG Repo, www.svgrepo.com, Transformed by: SVG Repo Mixer Tools -->
<svg fill="#34baeb" width="800px" height="800px" viewBox="-9.6 -9.6 51.20 51.20" style="fill-rule:evenodd;clip-rule:evenodd;stroke-linejoin:round;stroke-miterlimit:2;" version="1.1" xml:space="preserve" xmlns="http://www.w3.org/2000/svg" xmlns:serif="http://www.serif.com/" xmlns:xlink="http://www.w3.org/1999/xlink">
<g id="SVGRepo_bgCarrier" stroke-width="0"/>
<g id="SVGRepo_tracerCarrier" stroke-linecap="round" stroke-linejoin="round"/>
<g id="SVGRepo_iconCarrier">
<path d="M14.5,14.501l-10.502,0c-0.828,0 -1.5,0.673 -1.5,1.5c0,0.828 0.672,1.5 1.5,1.5l10.502,0l-0.001,10.502c0,0.828 0.672,1.5 1.5,1.501c0.828,-0 1.5,-0.673 1.5,-1.5l0.001,-10.503l10.502,0c0.828,0 1.5,-0.672 1.5,-1.5c0,-0.827 -0.672,-1.5 -1.5,-1.5l-10.502,0l0.001,-10.501c-0,-0.828 -0.672,-1.501 -1.5,-1.501c-0.828,0 -1.5,0.672 -1.5,1.5l-0.001,10.502Z"/>
<g id="Icon"/>
</g>
</svg>